# xmcd
#
# Track frame offsets: 
#        150
#        13928
#        28131
#        43197
#        59925
#        76861
#        87290
#        105029
#        118743
#
# Disc length: 1835 seconds
#
# Revision: 0
# Processed by: cddbd v1.5.2PL0 Copyright (c) Steve Scherf et al.
# Submitted via: ExactAudioCopy v1.0b3
#
DISCID=71072909
DTITLE=Natalie Gelman - Natalie Gelman
DYEAR=2006
DGENRE=Country
TTITLE0=Rest Of The Way
TTITLE1=Sweet July
TTITLE2=Always Was
TTITLE3=Leave
TTITLE4=Just Someone
TTITLE5=Cross Your Heart
TTITLE6=Half Dead
TTITLE7=Never
TTITLE8=Forgive Me
EXTD=
EXTT0=
EXTT1=
EXTT2=
EXTT3=
EXTT4=
EXTT5=
EXTT6=
EXTT7=
EXTT8=
PLAYORDER=
